<svg xmlns="http://www.w3.org/2000/svg">
  <defs>
    <symbol viewBox="0 0 48 48" id="icon-facebook-new">
      <path fill="#039be5" d="M24 5a19 19 0 100 38 19 19 0 100-38z"/>
      <path fill="#fff" d="M26.572 29.036h4.917l.772-4.995h-5.69v-2.73c0-2.075.678-3.915 2.619-3.915h3.119v-4.359c-.548-.074-1.707-.236-3.897-.236-4.573 0-7.254 2.415-7.254 7.917v3.323h-4.701v4.995h4.701v13.729c.931.14 1.874.235 2.842.235.875 0 1.729-.08 2.572-.194v-13.77z"/>
    </symbol>
    <symbol viewBox="0 0 48 48" id="icon-google-logo">
      <path fill="#fbc02d" d="M43.611 20.083H42V20H24v8h11.303c-1.649 4.657-6.08 8-11.303 8-6.627 0-12-5.373-12-12s5.373-12 12-12c3.059 0 5.842 1.154 7.961 3.039l5.657-5.657C34.046 6.053 29.268 4 24 4 12.955 4 4 12.955 4 24s8.955 20 20 20 20-8.955 20-20c0-1.341-.138-2.65-.389-3.917z"/>
      <path fill="#e53935" d="M6.306 14.691l6.571 4.819C14.655 15.108 18.961 12 24 12c3.059 0 5.842 1.154 7.961 3.039l5.657-5.657C34.046 6.053 29.268 4 24 4 16.318 4 9.656 8.337 6.306 14.691z"/>
      <path fill="#4caf50" d="M24 44c5.166 0 9.86-1.977 13.409-5.192l-6.19-5.238A11.91 11.91 0 0124 36c-5.202 0-9.619-3.317-11.283-7.946l-6.522 5.025C9.505 39.556 16.227 44 24 44z"/>
      <path fill="#1565c0" d="M43.611 20.083L43.595 20H24v8h11.303a12.04 12.04 0 01-4.087 5.571l.003-.002 6.19 5.238C36.971 39.205 44 34 44 24c0-1.341-.138-2.65-.389-3.917z"/>
    </symbol>
    <symbol viewBox="0 0 48 48" id="icon-twitter-circled">
      <path fill="#03a9f4" d="M24 4C13 4 4 13 4 24s9 20 20 20 20-9 20-20S35 4 24 4z"/>
      <path fill="#fff" d="M36 17.1c-.9.4-2 .8-3 .9 1-.6 2.6-1.9 3-3-1 .6-2.7 1.2-3.8 1.4-.9-1-2.2-1.4-3.6-1.4-2.7 0-4.6 2.3-4.6 5v2c-4 0-7.9-3-10.3-6-.4.7-.7 1.6-.7 2.5 0 1.8 1.7 3.7 3 4.5-.8 0-2.3-.6-3-1v.1c0 2.4 1.7 4 3.9 4.4-.4.1-.9.5-2.8.5.6 1.9 3.8 3 5.9 3-1.7 1.3-4.7 2-7 2h-1c2.2 1.4 5.2 2 8 2 9.1 0 14-6.9 14-13.4v-1.1c1-.7 1.3-1.4 2-2.4"/>
    </symbol>
  </defs>
</svg>